<svg width="64" height="64" viewBox="0 0 64 64" fill="none" xmlns="http://www.w3.org/2000/svg">
  <rect width="64" height="64" rx="14" fill="#0F3D2E"/>
  <path d="M12 26.9C12 23.7 14.6 21.1 17.8 21.1H38.8C42 21.1 44.6 23.7 44.6 26.9V49.2C44.6 52.4 42 55 38.8 55H17.8C14.6 55 12 52.4 12 49.2V26.9Z" fill="#F8F4EA" stroke="#0A261D" stroke-width="2.5"/>
  <path d="M20.8 20.1C20.1 17 22.1 13.9 25.2 13.2L44.1 8.9C47.2 8.2 50.3 10.1 51 13.3L56 35.1C56.7 38.2 54.8 41.3 51.6 42L45.1 43.5V26.9C45.1 23.4 42.9 20.4 39.8 19.2L23.4 23C22.1 23.3 21.1 22.1 20.8 20.1Z" fill="#D83A34" stroke="#0A261D" stroke-width="2.5"/>
  <path d="M18.5 36C18.5 28.7 28.5 28.4 28.5 35.1C28.5 28.4 38.5 28.7 38.5 36C38.5 42.4 28.5 47.8 28.5 47.8C28.5 47.8 18.5 42.4 18.5 36Z" fill="#D83A34"/>
  <path d="M47.1 16.5C47.1 13.9 50.6 13.8 50.6 16.2C50.6 13.8 54.2 13.9 54.2 16.5C54.2 18.8 50.6 20.8 50.6 20.8C50.6 20.8 47.1 18.8 47.1 16.5Z" fill="#F8F4EA"/>
  <path d="M22.8 24.6H37.6" stroke="#0F3D2E" stroke-width="3" stroke-linecap="round"/>
</svg>
